<?xml version="1.0" standalone="no"?>
<!DOCTYPE svg PUBLIC "-//W3C//DTD SVG 20010904//EN"
 "http://www.w3.org/TR/2001/REC-SVG-20010904/DTD/svg10.dtd">
<svg version="1.0" xmlns="http://www.w3.org/2000/svg"
 width="16.000000pt" height="16.000000pt" viewBox="0 0 16.000000 16.000000"
 preserveAspectRatio="xMidYMid meet">
<metadata>
Created by potrace 1.11, written by Peter Selinger 2001-2013
</metadata>
<g transform="translate(0.000000,16.000000) scale(0.002286,-0.002286)"
fill="#000000" stroke="none">
<path d="M2950 6734 c-186 -39 -337 -130 -494 -295 -100 -104 -202 -256 -371
-549 -147 -255 -244 -403 -328 -501 -205 -239 -469 -340 -777 -295 -118 17
-155 28 -186 57 l-21 20 -55 -63 c-129 -147 -211 -285 -258 -433 -27 -88 -38
-294 -21 -405 27 -173 119 -381 321 -730 206 -354 261 -472 306 -649 38 -147
33 -313 -11 -446 -38 -112 -119 -244 -215 -350 -33 -36 -60 -70 -60 -75 0 -5
9 -15 20 -22 25 -16 26 -28 1 -21 -16 4 -20 -3 -28 -49 -6 -40 -5 -54 4 -56
17 -4 17 -19 1 -25 -33 -10 103 -323 191 -439 112 -147 267 -254 456 -313 181
-57 260 -65 765 -75 331 -6 480 -13 546 -24 375 -64 585 -243 719 -613 34 -95
39 -102 63 -101 15 1 70 -7 122 -17 119 -21 361 -16 455 10 90 25 219 88 295
145 168 124 297 294 525 690 215 372 327 525 467 636 207 163 458 208 762 139
66 -15 76 -13 76 16 0 14 10 25 30 32 24 9 28 15 23 35 -4 17 2 31 19 50 42
45 134 174 167 233 41 73 86 199 101 277 16 88 13 265 -5 350 -38 183 -108
338 -315 698 -267 464 -331 631 -331 859 1 180 57 334 186 508 62 83 68 88 95
82 28 -6 28 -5 37 47 6 40 5 54 -4 56 -17 4 -17 19 0 25 32 10 -104 323 -192
439 -112 147 -267 254 -456 313 -181 57 -260 65 -765 75 -331 6 -480 13 -546
24 -375 64 -585 243 -719 613 -34 95 -39 102 -63 101 -15 -1 -67 6 -116 15
-109 21 -324 21 -416 1z m411 -110 l27 -6 -68 -89 c-76 -99 -150 -239 -181
-344 -30 -102 -37 -302 -14 -415 39 -192 110 -351 320 -715 220 -381 288 -535
321 -726 29 -167 2 -330 -81 -487 -39 -73 -142 -221 -155 -222 -3 0 -16 28
-29 63 -130 335 -359 538 -696 615 -155 36 -257 43 -715 52 -347 6 -465 12
-535 25 -308 57 -503 202 -635 470 -27 55 -52 112 -55 127 l-7 26 44 -11 c23
-6 122 -11 218 -11 161 0 182 2 263 27 153 47 258 110 386 231 123 117 218
254 420 606 264 458 413 632 627 732 122 57 189 69 364 63 85 -3 167 -8 181
-11z m148 -216 c154 -304 398 -468 776 -523 79 -12 240 -19 570 -25 409 -8
471 -11 557 -29 121 -26 223 -62 308 -109 84 -46 222 -184 275 -277 39 -67 96
-199 110 -258 l7 -28 -43 8 c-24 4 -116 8 -204 7 -143 -1 -169 -4 -248 -28
-152 -46 -258 -109 -386 -230 -123 -117 -218 -254 -420 -606 -218 -377 -337
-535 -493 -651 -151 -112 -310 -156 -523 -145 -71 3 -142 9 -156 12 l-27 6 68
89 c76 99 150 239 181 344 30 102 37 302 14 415 -39 192 -110 351 -320 715
-220 381 -288 535 -321 726 -29 167 -2 330 81 486 42 79 133 208 141 200 2 -2
26 -47 53 -99z m2518 -1352 c2 -2 -21 -39 -52 -82 -152 -212 -212 -455 -171
-693 35 -202 121 -395 346 -781 245 -421 320 -628 307 -854 -10 -177 -72 -330
-195 -484 l-34 -43 -47 93 c-157 313 -387 474 -761 534 -67 11 -228 18 -550
24 -329 6 -482 13 -554 24 -119 19 -273 70 -353 117 -85 50 -221 189 -274 280
-47 80 -106 216 -97 224 2 3 31 0 64 -7 89 -18 315 -15 399 6 135 32 236 79
340 156 53 40 173 159 226 225 55 69 171 253 294 465 215 373 327 526 467 636
115 90 257 149 408 168 37 4 231 -2 237 -8z m-5247 -181 c120 -303 325 -495
617 -580 166 -49 248 -56 733 -65 329 -6 482 -13 554 -24 119 -19 273 -70 353
-117 85 -50 221 -189 274 -280 47 -80 106 -216 97 -224 -2 -3 -31 0 -64 7 -89
18 -315 15 -399 -6 -135 -32 -236 -79 -340 -156 -53 -40 -173 -159 -226 -225
-55 -69 -171 -253 -294 -465 -215 -373 -327 -526 -467 -636 -171 -134 -386
-192 -609 -164 -140 17 -136 14 -93 63 289 336 358 640 233 1018 -39 118 -135
311 -282 566 -270 466 -338 654 -324 891 8 134 39 233 112 357 30 53 86 128
90 123 2 -2 17 -39 35 -83z m2581 -1401 l27 -6 -68 -89 c-76 -99 -150 -239
-181 -344 -30 -102 -37 -302 -14 -415 39 -192 110 -351 320 -715 220 -381 288
-535 321 -726 29 -167 2 -330 -81 -486 -42 -79 -133 -208 -141 -200 -2 2 -26
47 -53 99 -154 304 -398 468 -776 523 -79 12 -240 19 -570 25 -500 9 -557 15
-727 76 -209 75 -360 216 -457 426 -40 87 -76 187 -69 193 2 2 37 -1 78 -7 41
-5 131 -8 200 -5 242 10 414 85 599 261 123 117 218 254 420 606 313 543 487
717 786 784 53 12 105 15 215 11 80 -3 157 -8 171 -11z m138 -156 c130 -336
359 -539 696 -616 155 -36 257 -43 715 -52 347 -6 465 -12 535 -25 308 -57
503 -202 635 -470 27 -55 52 -112 55 -127 l7 -26 -44 11 c-23 6 -122 11 -218
11 -161 0 -182 -2 -263 -27 -153 -47 -258 -110 -386 -231 -123 -117 -218 -254
-420 -606 -266 -462 -414 -634 -632 -734 -121 -55 -209 -70 -373 -62 -78 3
-153 9 -167 12 l-27 6 68 89 c76 99 150 239 181 344 30 102 37 302 14 415 -39
192 -110 351 -320 715 -220 381 -288 535 -321 726 -29 167 -2 330 81 487 39
73 142 221 155 222 3 0 16 -28 29 -62z"/>
</g>
</svg>
