<?xml version="1.0" standalone="no"?>
<!DOCTYPE svg PUBLIC "-//W3C//DTD SVG 1.1//EN" "http://www.w3.org/Graphics/SVG/1.1/DTD/svg11.dtd">
<svg xmlns="http://www.w3.org/2000/svg" xmlns:xlink="http://www.w3.org/1999/xlink" version="1.1" width="21cm" height="12cm" viewBox="-25 -25 590 362" preserveAspectRatio="xMinYMin meet">
<!-- Wikimedia Bug #4388: title>Wallpaper group p3m1</title -->
  <desc>
This is the structure diagram of the walpaper group p3m1

I, the creator of this work, hereby release it into the public domain.
This applies worldwide.

In case this is not legally possible, I grant anyone the right
to use this work for any purpose, without any conditions.
</desc>
  <clipPath id="tile">
    <polygon points="0,312 360,312 540,0 180,0"/>
  </clipPath>
  <g stroke="#000000" stroke-width="3" fill="none">
    <g stroke="#999999" fill="#cccccc" clip-path="url(#tile)">
      <g transform="translate(180,208) rotate(0) scale(-1,-1) translate(180,208) scale(-1,-1)">
        <polygon points="180,208 180,0 360,104 "/>
        <path stroke="#000000" fill="none" d="M 240 104 m -20 10 l 40 0 0 -20 m -10 10 l 0 10"/>
      </g>
      <g transform="translate(180,208) rotate(0) translate(0,0) rotate(-60) scale(-1,1) translate(180,208) scale(-1,-1)">
        <polygon points="180,208 180,0 360,104 "/>
        <path stroke="#000000" fill="none" d="M 240 104 m -20 10 l 40 0 0 -20 m -10 10 l 0 10"/>
      </g>
      <g transform="translate(180,208) rotate(120) scale(-1,-1) translate(180,208) scale(-1,-1)">
        <polygon points="180,208 180,0 360,104 "/>
        <path stroke="#000000" fill="none" d="M 240 104 m -20 10 l 40 0 0 -20 m -10 10 l 0 10"/>
      </g>
      <g transform="translate(180,208) rotate(120) translate(0,0) rotate(-60) scale(-1,1) translate(180,208) scale(-1,-1)">
        <polygon points="180,208 180,0 360,104 "/>
        <path stroke="#000000" fill="none" d="M 240 104 m -20 10 l 40 0 0 -20 m -10 10 l 0 10"/>
      </g>
      <g transform="translate(180,208) rotate(-120) scale(-1,-1) translate(180,208) scale(-1,-1)">
        <polygon points="180,208 180,0 360,104 "/>
        <path stroke="#000000" fill="none" d="M 240 104 m -20 10 l 40 0 0 -20 m -10 10 l 0 10"/>
      </g>
      <g transform="translate(180,208) rotate(-120) translate(0,0) rotate(-60) scale(-1,1) translate(180,208) scale(-1,-1)">
        <polygon points="180,208 180,0 360,104 "/>
        <path stroke="#000000" fill="none" d="M 240 104 m -20 10 l 40 0 0 -20 m -10 10 l 0 10"/>
      </g>
      <g transform="translate(360,-104) rotate(120) scale(-1,-1) translate(180,208) scale(-1,-1)">
        <polygon points="180,208 180,0 360,104 "/>
        <path stroke="#000000" fill="none" d="M 240 104 m -20 10 l 40 0 0 -20 m -10 10 l 0 10"/>
      </g>
      <g transform="translate(360,-104) rotate(120) translate(0,0) rotate(-60) scale(-1,1) translate(180,208) scale(-1,-1)">
        <polygon points="180,208 180,0 360,104 "/>
        <path stroke="#000000" fill="none" d="M 240 104 m -20 10 l 40 0 0 -20 m -10 10 l 0 10"/>
      </g>
      <g transform="translate(540,208) rotate(-120) scale(-1,-1) translate(180,208) scale(-1,-1)">
        <polygon points="180,208 180,0 360,104 "/>
        <path stroke="#000000" fill="none" d="M 240 104 m -20 10 l 40 0 0 -20 m -10 10 l 0 10"/>
      </g>
      <g transform="translate(540,208) rotate(-120) translate(0,0) rotate(-60) scale(-1,1) translate(180,208) scale(-1,-1)">
        <polygon points="180,208 180,0 360,104 "/>
        <path stroke="#000000" fill="none" d="M 240 104 m -20 10 l 40 0 0 -20 m -10 10 l 0 10"/>
      </g>
      <g fill="#ffff00">
        <polygon points="180,208 180,0 360,104 "/>
        <path stroke="#000000" fill="none" d="M 240 104 m -20 10 l 40 0 0 -20 m -10 10 l 0 10"/>
      </g>
    </g>
    <g stroke="#009900" stroke-dasharray="15,10">
      <desc>Line(s) of glide reflection</desc>
      <polyline points="90,312 90,156 360,0 495,78 "/>
      <polyline points="45,234 180,312 450,156 450,0 "/>
      <line x1="270" y1="312" x2="270" y2="0"/>
      <line x1="135" y1="78" x2="405" y2="234"/>
    </g>
    <g>
      <desc>Line(s) of reflection</desc>
      <g stroke-width="9">
        <line x1="0" y1="312" x2="540" y2="0"/>
        <polyline points="180,312 180,0 450,156 "/>
        <polyline points="90,156 360,312 360,0 "/>
      </g>
      <g stroke-width="4" stroke="#9999ff">
        <line x1="0" y1="312" x2="540" y2="0"/>
        <polyline points="180,312 180,0 450,156 "/>
        <polyline points="90,156 360,312 360,0 "/>
      </g>
    </g>
    <g fill="#0000ff">
      <desc>Center(s) of threefold rotation</desc>
      <g stroke="#ffffff" stroke-width="9">
        <polygon points="-18,10.4 18,10.4 0,-20.8" transform="translate(180,208) rotate(80)"/>
      </g>
      <g>
        <polygon points="-18,10.4 18,10.4 0,-20.8" transform="translate(180,208) rotate(80)"/>
      </g>
    </g>
    <g fill="#00ff00">
      <desc>Center(s) of threefold rotation</desc>
      <g stroke="#ffffff" stroke-width="9">
        <polygon points="-18,10.4 18,10.4 0,-20.8" transform="translate(360,104) rotate(40)"/>
      </g>
      <g>
        <polygon points="-18,10.4 18,10.4 0,-20.8" transform="translate(360,104) rotate(40)"/>
      </g>
    </g>
    <g fill="#ff0000">
      <desc>Center(s) of threefold rotation</desc>
      <g stroke="#ffffff" stroke-width="9">
        <polygon points="-18,10.4 18,10.4 0,-20.8" transform="translate(0,312)"/>
        <polygon points="-18,10.4 18,10.4 0,-20.8" transform="translate(180,0)"/>
        <polygon points="-18,10.4 18,10.4 0,-20.8" transform="translate(360,312)"/>
        <polygon points="-18,10.4 18,10.4 0,-20.8" transform="translate(540,0)"/>
      </g>
      <g>
        <polygon points="-18,10.4 18,10.4 0,-20.8" transform="translate(0,312)"/>
        <polygon points="-18,10.4 18,10.4 0,-20.8" transform="translate(180,0)"/>
        <polygon points="-18,10.4 18,10.4 0,-20.8" transform="translate(360,312)"/>
        <polygon points="-18,10.4 18,10.4 0,-20.8" transform="translate(540,0)"/>
      </g>
    </g>
  </g>
</svg>
