<?xml version="1.0" standalone="no"?>
<!DOCTYPE svg PUBLIC "-//W3C//DTD SVG 1.1//EN" "http://www.w3.org/Graphics/SVG/1.1/DTD/svg11.dtd">
<svg xmlns="http://www.w3.org/2000/svg" xmlns:xlink="http://www.w3.org/1999/xlink" version="1.1" width="21cm" height="12cm" viewBox="-25 -25 362 362" preserveAspectRatio="xMinYMin meet">
<!-- Wikimedia Bug #4388: title>Wallpaper group p4</title -->
  <desc>
This is the structure diagram of the walpaper group p4

I, the creator of this work, hereby release it into the public domain.
This applies worldwide.

In case this is not legally possible, I grant anyone the right
to use this work for any purpose, without any conditions.
</desc>
  <clipPath id="tile">
    <polygon points="0,312 312,312 312,0 0,0"/>
  </clipPath>
  <g stroke="#000000" stroke-width="3" fill="none">
    <g stroke="#999999" fill="#cccccc" clip-path="url(#tile)">
      <g transform="translate(156,156) rotate(0) scale(-1,-1) translate(156,156) scale(-1,-1)">
        <polygon points="156,156 156,312 0,312 0,156 "/>
        <path stroke="#000000" fill="none" d="M 78 234 m -20 10 l 40 0 0 -20 m -10 10 l 0 10"/>
      </g>
      <g transform="translate(156,156) rotate(-90) scale(-1,-1) translate(156,156) scale(-1,-1)">
        <polygon points="156,156 156,312 0,312 0,156 "/>
        <path stroke="#000000" fill="none" d="M 78 234 m -20 10 l 40 0 0 -20 m -10 10 l 0 10"/>
      </g>
      <g transform="translate(156,156) rotate(180) scale(-1,-1) translate(156,156) scale(-1,-1)">
        <polygon points="156,156 156,312 0,312 0,156 "/>
        <path stroke="#000000" fill="none" d="M 78 234 m -20 10 l 40 0 0 -20 m -10 10 l 0 10"/>
      </g>
      <g transform="translate(156,156) rotate(90) scale(-1,-1) translate(156,156) scale(-1,-1)">
        <polygon points="156,156 156,312 0,312 0,156 "/>
        <path stroke="#000000" fill="none" d="M 78 234 m -20 10 l 40 0 0 -20 m -10 10 l 0 10"/>
      </g>
      <g fill="#ffff00">
        <polygon points="156,156 156,312 0,312 0,156 "/>
        <path stroke="#000000" fill="none" d="M 78 234 m -20 10 l 40 0 0 -20 m -10 10 l 0 10"/>
      </g>
    </g>
    <g fill="#ff00ff">
      <desc>Center(s) of twofold rotation</desc>
      <g stroke="#ffffff" stroke-width="9">
        <polygon points="0,-20 10,0 0,20 -10,0" transform="translate(156,312)"/>
        <polygon points="0,-20 10,0 0,20 -10,0" transform="translate(0,156)"/>
        <polygon points="0,-20 10,0 0,20 -10,0" transform="translate(156,0)"/>
        <polygon points="0,-20 10,0 0,20 -10,0" transform="translate(312,156)"/>
      </g>
      <g>
        <polygon points="0,-20 10,0 0,20 -10,0" transform="translate(156,312)"/>
        <polygon points="0,-20 10,0 0,20 -10,0" transform="translate(0,156)"/>
        <polygon points="0,-20 10,0 0,20 -10,0" transform="translate(156,0)"/>
        <polygon points="0,-20 10,0 0,20 -10,0" transform="translate(312,156)"/>
      </g>
    </g>
    <g fill="#ff0000">
      <desc>Center(s) of fourfold rotation</desc>
      <g stroke="#ffffff" stroke-width="9">
        <polygon points="-15,-15 -15,15 15,15 15,-15" transform="translate(0,312) rotate(45)"/>
        <polygon points="-15,-15 -15,15 15,15 15,-15" transform="translate(0,0) rotate(45)"/>
        <polygon points="-15,-15 -15,15 15,15 15,-15" transform="translate(312,312) rotate(45)"/>
        <polygon points="-15,-15 -15,15 15,15 15,-15" transform="translate(312,0) rotate(45)"/>
      </g>
      <g>
        <polygon points="-15,-15 -15,15 15,15 15,-15" transform="translate(0,312) rotate(45)"/>
        <polygon points="-15,-15 -15,15 15,15 15,-15" transform="translate(0,0) rotate(45)"/>
        <polygon points="-15,-15 -15,15 15,15 15,-15" transform="translate(312,312) rotate(45)"/>
        <polygon points="-15,-15 -15,15 15,15 15,-15" transform="translate(312,0) rotate(45)"/>
      </g>
    </g>
    <g fill="#00ff00">
      <desc>Center(s) of fourfold rotation</desc>
      <g stroke="#ffffff" stroke-width="9">
        <polygon points="-15,-15 -15,15 15,15 15,-15" transform="translate(156,156)"/>
      </g>
      <g>
        <polygon points="-15,-15 -15,15 15,15 15,-15" transform="translate(156,156)"/>
      </g>
    </g>
  </g>
</svg>
