<?xml version="1.0" standalone="no"?>
<!DOCTYPE svg PUBLIC "-//W3C//DTD SVG 1.1//EN" "http://www.w3.org/Graphics/SVG/1.1/DTD/svg11.dtd">
<svg xmlns="http://www.w3.org/2000/svg" xmlns:xlink="http://www.w3.org/1999/xlink" version="1.1" width="21cm" height="12cm" viewBox="-25 -25 590 362" preserveAspectRatio="xMinYMin meet">
<!-- Wikimedia Bug #4388: title>Wallpaper group pg</title -->
  <desc>
This is the structure diagram of the walpaper group pg

I, the creator of this work, hereby release it into the public domain.
This applies worldwide.

In case this is not legally possible, I grant anyone the right
to use this work for any purpose, without any conditions.
</desc>
  <clipPath id="tile">
    <polygon points="0,312 540,312 540,0 0,0"/>
  </clipPath>
  <g stroke="#000000" stroke-width="3" fill="none">
    <g stroke="#999999" fill="#cccccc" clip-path="url(#tile)">
      <g transform="translate(0,312) rotate(0) scale(-1,-1) translate(0,312) scale(-1,-1)">
        <polygon points="0,312 270,312 270,0 0,0 "/>
        <path stroke="#000000" fill="none" d="M 135 156 m -20 10 l 40 0 0 -20 m -10 10 l 0 10"/>
      </g>
      <g transform="translate(0,312) rotate(0) translate(270,-312) rotate(0) scale(-1,1) translate(0,312) scale(-1,-1)">
        <polygon points="0,312 270,312 270,0 0,0 "/>
        <path stroke="#000000" fill="none" d="M 135 156 m -20 10 l 40 0 0 -20 m -10 10 l 0 10"/>
      </g>
      <g fill="#ffff00">
        <polygon points="0,312 270,312 270,0 0,0 "/>
        <path stroke="#000000" fill="none" d="M 135 156 m -20 10 l 40 0 0 -20 m -10 10 l 0 10"/>
      </g>
    </g>
    <g stroke="#000066" stroke-dasharray="15,10">
      <desc>Line(s) of glide reflection</desc>
      <line x1="0" y1="312" x2="540" y2="312"/>
      <line x1="0" y1="0" x2="540" y2="0"/>
    </g>
    <g stroke="#009900" stroke-dasharray="15,10">
      <desc>Line(s) of glide reflection</desc>
      <line x1="0" y1="156" x2="540" y2="156"/>
    </g>
  </g>
</svg>
