<?xml version="1.0" standalone="no"?>
<!DOCTYPE svg PUBLIC "-//W3C//DTD SVG 1.1//EN" "http://www.w3.org/Graphics/SVG/1.1/DTD/svg11.dtd">
<svg xmlns="http://www.w3.org/2000/svg" xmlns:xlink="http://www.w3.org/1999/xlink" version="1.1" width="21cm" height="12cm" viewBox="-25 -25 590 362" preserveAspectRatio="xMinYMin meet">
<!-- Wikimedia Bug #4388: title>Wallpaper group pmg</title -->
  <desc>
This is the structure diagram of the walpaper group pmg

I, the creator of this work, hereby release it into the public domain.
This applies worldwide.

In case this is not legally possible, I grant anyone the right
to use this work for any purpose, without any conditions.
</desc>
  <clipPath id="tile">
    <polygon points="0,312 540,312 540,0 0,0"/>
  </clipPath>
  <g stroke="#000000" stroke-width="3" fill="none">
    <g stroke="#999999" fill="#cccccc" clip-path="url(#tile)">
      <g transform="translate(0,156) rotate(0) scale(-1,-1) translate(0,156) scale(-1,-1)">
        <polygon points="0,156 0,312 270,312 270,156 "/>
        <path stroke="#000000" fill="none" d="M 135 234 m -20 10 l 40 0 0 -20 m -10 10 l 0 10"/>
      </g>
      <g transform="translate(0,156) rotate(0) translate(0,0) rotate(0) scale(-1,1) translate(0,156) scale(-1,-1)">
        <polygon points="0,156 0,312 270,312 270,156 "/>
        <path stroke="#000000" fill="none" d="M 135 234 m -20 10 l 40 0 0 -20 m -10 10 l 0 10"/>
      </g>
      <g transform="translate(540,312) rotate(180) scale(-1,-1) translate(0,156) scale(-1,-1)">
        <polygon points="0,156 0,312 270,312 270,156 "/>
        <path stroke="#000000" fill="none" d="M 135 234 m -20 10 l 40 0 0 -20 m -10 10 l 0 10"/>
      </g>
      <g transform="translate(540,312) rotate(180) translate(0,0) rotate(0) scale(-1,1) translate(0,156) scale(-1,-1)">
        <polygon points="0,156 0,312 270,312 270,156 "/>
        <path stroke="#000000" fill="none" d="M 135 234 m -20 10 l 40 0 0 -20 m -10 10 l 0 10"/>
      </g>
      <g transform="translate(540,0) rotate(180) scale(-1,-1) translate(0,156) scale(-1,-1)">
        <polygon points="0,156 0,312 270,312 270,156 "/>
        <path stroke="#000000" fill="none" d="M 135 234 m -20 10 l 40 0 0 -20 m -10 10 l 0 10"/>
      </g>
      <g transform="translate(540,0) rotate(180) translate(0,0) rotate(0) scale(-1,1) translate(0,156) scale(-1,-1)">
        <polygon points="0,156 0,312 270,312 270,156 "/>
        <path stroke="#000000" fill="none" d="M 135 234 m -20 10 l 40 0 0 -20 m -10 10 l 0 10"/>
      </g>
      <g fill="#ffff00">
        <polygon points="0,156 0,312 270,312 270,156 "/>
        <path stroke="#000000" fill="none" d="M 135 234 m -20 10 l 40 0 0 -20 m -10 10 l 0 10"/>
      </g>
    </g>
    <g stroke="#990000" stroke-dasharray="15,10">
      <desc>Line(s) of glide reflection</desc>
      <line x1="0" y1="312" x2="0" y2="0"/>
      <line x1="540" y1="312" x2="540" y2="0"/>
    </g>
    <g stroke="#000099" stroke-dasharray="15,10">
      <desc>Line(s) of glide reflection</desc>
      <line x1="270" y1="312" x2="270" y2="0"/>
    </g>
    <g>
      <desc>Line(s) of reflection</desc>
      <g stroke-width="9">
        <line x1="0" y1="312" x2="540" y2="312"/>
        <line x1="0" y1="156" x2="540" y2="156"/>
        <line x1="0" y1="0" x2="540" y2="0"/>
      </g>
      <g stroke-width="4" stroke="#9999ff">
        <line x1="0" y1="312" x2="540" y2="312"/>
        <line x1="0" y1="156" x2="540" y2="156"/>
        <line x1="0" y1="0" x2="540" y2="0"/>
      </g>
    </g>
    <g fill="#ff0000">
      <desc>Center(s) of twofold rotation</desc>
      <g stroke="#ffffff" stroke-width="9">
        <polygon points="0,-20 10,0 0,20 -10,0" transform="translate(0,234)"/>
        <polygon points="0,-20 10,0 0,20 -10,0" transform="translate(0,78)"/>
        <polygon points="0,-20 10,0 0,20 -10,0" transform="translate(540,234)"/>
        <polygon points="0,-20 10,0 0,20 -10,0" transform="translate(540,78)"/>
      </g>
      <g>
        <polygon points="0,-20 10,0 0,20 -10,0" transform="translate(0,234)"/>
        <polygon points="0,-20 10,0 0,20 -10,0" transform="translate(0,78)"/>
        <polygon points="0,-20 10,0 0,20 -10,0" transform="translate(540,234)"/>
        <polygon points="0,-20 10,0 0,20 -10,0" transform="translate(540,78)"/>
      </g>
    </g>
    <g fill="#0000ff">
      <desc>Center(s) of twofold rotation</desc>
      <g stroke="#ffffff" stroke-width="9">
        <polygon points="0,-20 10,0 0,20 -10,0" transform="translate(270,234) rotate(90)"/>
        <polygon points="0,-20 10,0 0,20 -10,0" transform="translate(270,78) rotate(90)"/>
      </g>
      <g>
        <polygon points="0,-20 10,0 0,20 -10,0" transform="translate(270,234) rotate(90)"/>
        <polygon points="0,-20 10,0 0,20 -10,0" transform="translate(270,78) rotate(90)"/>
      </g>
    </g>
  </g>
</svg>
